<?xml version="1.0" encoding="UTF-8"?>
<svg xmlns="http://www.w3.org/2000/svg" version="1.1" viewBox="0 0 183 37.3">
  <defs>
    <style>
      .cls-1 {
        fill: #fff;
      }
    </style>
  </defs>
  <!-- Generator: Adobe Illustrator 28.6.0, SVG Export Plug-In . SVG Version: 1.2.0 Build 709)  -->
  <g>
    <g id="Layer_1">
      <g>
        <g>
          <g>
            <path class="cls-1" d="M65.9,18.9c0-7.2,3.7-11.6,10.2-11.6s10.2,4.3,10.2,11.6-3.6,11.1-10.2,11.1-10.2-4-10.2-11.2ZM81.9,19c0-5-2.1-7.7-5.8-7.7s-5.8,2.7-5.8,7.7,2.1,7.3,5.8,7.3,5.8-2.2,5.8-7.3Z"/>
            <path class="cls-1" d="M89.9,29.1V8.2c0-.1,0-.2.2-.2h4c.1,0,.2,0,.2.2v17c0,.1,0,.2.2.2h10.1c.1,0,.2,0,.2.2v3.5c0,.1,0,.2-.2.2h-14.6c-.1,0-.2,0-.2-.2Z"/>
            <path class="cls-1" d="M109.2,29.1V12c0-.1,0-.2-.2-.2h-6c-.1,0-.2,0-.2-.2v-3.3c0-.1,0-.2.2-.2h16.9c.1,0,.2,0,.2.2v3.3c0,.1,0,.2-.2.2h-6c-.1,0-.2,0-.2.2v17.2c0,.1,0,.2-.2.2h-4c-.1,0-.2,0-.2-.2Z"/>
            <path class="cls-1" d="M123.4,29.1V8.2c0-.1,0-.2.2-.2h15.2c.1,0,.2,0,.2.2v3.3c0,.1,0,.2-.2.2h-10.9c-.1,0-.2,0-.2.2v4.1c0,.1,0,.2.2.2h10c.1,0,.2,0,.2.2v3.3c0,.1,0,.2-.2.2h-10c-.1,0-.2,0-.2.2v5.1c0,.1,0,.2.2.2h11.4c.1,0,.2,0,.2.2v3.4c0,.1,0,.2-.2.2h-15.8c-.1,0-.2,0-.2-.2Z"/>
            <path class="cls-1" d="M160.5,22c.1,0,.2.1.2.2-1,4.7-4.3,7.8-9.1,7.8s-9.9-3.8-9.9-11.1,3.8-11.6,9.9-11.6,8.6,3.3,9.1,7.5c0,.1,0,.2-.2.2h-4.1c0,0-.2,0-.2-.2-.6-2.3-2.5-3.7-4.6-3.7-3.7,0-5.4,2.9-5.4,7.5s1.7,7.5,5.2,7.5,4.2-1.4,4.8-4,.1-.2.2-.2h4Z"/>
            <path class="cls-1" d="M177.7,29.2l-6.1-9.3c0-.1-.2-.1-.3,0l-2.1,2.1s0,0,0,.1v7c0,.1,0,.2-.2.2h-4c-.1,0-.2,0-.2-.2V8.2c0-.1,0-.2.2-.2h4c.1,0,.2,0,.2.2v7.9c0,.2.2.3.4.1l7.7-8.2s0,0,.1,0h5.2c.2,0,.3.2.1.4l-7.9,7.9c0,0,0,.2,0,.3l8.3,12.4c0,.1,0,.3-.2.3h-4.9c0,0-.1,0-.2,0Z"/>
          </g>
          <path class="cls-1" d="M57.9,29.1v-9.2c0-.1,0-.2-.2-.2h-7.9c-.1,0-.2,0-.2.2v9.2c0,.1,0,.2-.2.2h-4c-.1,0-.2,0-.2-.2V8.2c0-.1,0-.2.2-.2h4c.1,0,.2,0,.2.2v7.6c0,.1,0,.2.2.2h7.9c.1,0,.2,0,.2-.2v-7.6c0-.1,0-.2.2-.2h4.1c.1,0,.2,0,.2.2v20.9c0,.1,0,.2-.2.2h-4.1c-.1,0-.2,0-.2-.2Z"/>
        </g>
        <g>
          <g>
            <rect class="cls-1" x="17" y="9" width="3.1" height="3.1" rx="1.5" ry="1.5" transform="translate(-2 16.2) rotate(-45)"/>
            <path class="cls-1" d="M29.4,25.4l-1.3-1.3c-.8-.8-.8-2,0-2.8l1.3-1.3c.8-.8.8-2,0-2.8l-1.3-1.3c-.8-.8-.8-2,0-2.8l1.3-1.3c.8-.8.8-2,0-2.8l-1.3-1.3c-.8-.8-2-.8-2.8,0l-1.3,1.3c-.8.8-.8,2,0,2.8l1.3,1.3c.8.8.8,2,0,2.8l-1.3,1.3c-.8.8-2,.8-2.8,0l-1.3-1.3c-.8-.8-2-.8-2.8,0l-1.3,1.3c-.8.8-2,.8-2.8,0l-1.3-1.3c-.8-.8-.8-2,0-2.8l1.3-1.3c.8-.8.8-2,0-2.8l-1.3-1.3c-.8-.8-2-.8-2.8,0l-1.3,1.3c-.8.8-.8,2,0,2.8l1.3,1.3c.8.8.8,2,0,2.8l-1.3,1.3c-.8.8-.8,2,0,2.8l1.3,1.3c.8.8.8,2,0,2.8l-1.3,1.3c-.8.8-.8,2,0,2.8l1.3,1.3c.8.8,2,.8,2.8,0l1.3-1.3c.8-.8.8-2,0-2.8l-1.3-1.3c-.8-.8-.8-2,0-2.8l1.3-1.3c.8-.8,2-.8,2.8,0l1.3,1.3c.8.8,2,.8,2.8,0l1.3-1.3c.8-.8,2-.8,2.8,0l1.3,1.3c.8.8.8,2,0,2.8l-1.3,1.3c-.8.8-.8,2,0,2.8l1.3,1.3c.8.8,2,.8,2.8,0l1.3-1.3c.8-.8.8-2,0-2.8ZM17.5,19.8h0c-.6-.6-.6-1.6,0-2.2h0c.6-.6,1.6-.6,2.2,0h0c.6.6.6,1.6,0,2.2h0c-.6.6-1.6.6-2.2,0Z"/>
            <rect class="cls-1" x="17" y="25.3" width="3.1" height="3.1" rx="1.5" ry="1.5" transform="translate(-13.5 21) rotate(-45)"/>
          </g>
          <path class="cls-1" d="M18.6,37.3C8.3,37.3,0,28.9,0,18.7S8.3.1,18.6.1s18.6,8.3,18.6,18.6-8.3,18.6-18.6,18.6ZM18.6,1.1C8.9,1.1,1,9,1,18.7s7.9,17.5,17.5,17.5,17.5-7.9,17.5-17.5S28.2,1.1,18.6,1.1Z"/>
        </g>
      </g>
    </g>
  </g>
</svg>